{"title":"Guerra Mundial Z - Dublado 720p AVI","uid":11022758,"size":1548322982,"categoryP":"video","categoryS":"hd___movies","magnet":"?xt=urn:btih:dd7e038c334e13023ea68cdfff309b12f22a2a83&amp;dn=Guerra+Mundial+Z+-+Dublado+720p+AVI&amp;tr=udp%3A%2F%2Ftracker.openbittorrent.com%3A80&amp;tr=udp%3A%2F%2Fopen.demonii.com%3A1337&amp;tr=udp%3A%2F%2Ftracker.coppersurfer.tk%3A6969&amp;tr=udp%3A%2F%2Fexodus.desync.com%3A6969","seeders":5,"leechers":2,"uploader":"eletrom","files":-1,"time":1410622434,"description":"=====================================MagaiverBR================================\nGeneral\nComplete name                            : Guerra Mundial Z - 720p\nFormat                                   : AVI\nFormat/Info                              : Audio Video Interleave\nFormat profile                           : OpenDML\nFile size                                : 1.44 GiB\nDuration                                 : 2h 3mn\nOverall bit rate                         : 1 677 Kbps\nWriting application                      : MEncoder SVN-r33883(20110719-gcc4.5.2)\nWriting library                          : MPlayer\n\nVideo\nID                                       : 0\nFormat                                   : MPEG-4 Visual\nFormat profile                           : Advanced Simple@L5\nFormat settings, BVOP                    : 2\nFormat settings, QPel                    : No\nFormat settings, GMC                     : No warppoints\nFormat settings, Matrix                  : Default (H.263)\nCodec ID                                 : XVID\nCodec ID/Hint                            : XviD\nDuration                                 : 2h 3mn\nBit rate                                 : 1 598 Kbps\nWidth                                    : 1 280 pixels\nHeight                                   : 536 pixels\nDisplay aspect ratio                     : 2.40:1\nFrame rate                               : 29.970 fps\nColor space                              : YUV\nChroma subsampling                       : 4:2:0\nBit depth                                : 8 bits\nScan type                                : Progressive\nCompression mode                         : Lossy\nBits/(Pixel*Frame)                       : 0.078\nStream size                              : 1.37 GiB (95%)\nWriting library                          : XviD 1.2.1 (UTC 2008-12-04)\n\nAudio\nID                                       : 1\nFormat                                   : MPEG Audio\nFormat version                           : Version 2\nFormat profile                           : Layer 3\nMode                                     : Joint stereo\nMode extension                           : MS Stereo\nCodec ID                                 : 55\nCodec ID/Hint                            : MP3\nDuration                                 : 2h 3mn\nBit rate mode                            : Constant\nBit rate                                 : 64.0 Kbps\nChannel(s)                               : 2 channels\nSampling rate                            : 22.05 KHz\nCompression mode                         : Lossy\nDelay relative to video                  : 33ms\nStream size                              : 56.3 MiB (4%)\nAlignment                                : Aligned on interleaves\nInterleave, duration                     : 26 ms (0.78 video frame)\nInterleave, preload duration             : 522 ms\nWriting library                          : LAME3.98.4\n\n","torrent":{"xt":"urn:btih:dd7e038c334e13023ea68cdfff309b12f22a2a83","amp;dn":"Guerra+Mundial+Z+-+Dublado+720p+AVI","amp;tr":["udp%3A%2F%2Ftracker.openbittorrent.com%3A80","udp%3A%2F%2Fopen.demonii.com%3A1337","udp%3A%2F%2Ftracker.coppersurfer.tk%3A6969","udp%3A%2F%2Fexodus.desync.com%3A6969"],"infoHash":"dd7e038c334e13023ea68cdfff309b12f22a2a83","infoHashBuffer":{"type":"Buffer","data":[221,126,3,140,51,78,19,2,62,166,140,223,255,48,155,18,242,42,42,131]},"announce":[],"urlList":[]}}